<mxfile host="app.diagrams.net" modified="2022-08-30T23:03:45.910Z" agent="5.0 (Windows NT 10.0; Win64; x64) AppleWebKit/537.36 (KHTML, like Gecko) Chrome/104.0.0.0 Safari/537.36" etag="c9wXf-QQMkIcFW63kEhw" version="20.2.7" type="github">
  <diagram id="egTlvu28jpOTDEv3fnPV" name="Page-1">
    <mxGraphModel dx="973" dy="1983" grid="1" gridSize="10" guides="1" tooltips="1" connect="1" arrows="1" fold="1" page="1" pageScale="1" pageWidth="850" pageHeight="1100" math="0" shadow="0">
      <root>
        <mxCell id="0" />
        <mxCell id="1" parent="0" />
        <mxCell id="lqsnWIF8sEhZWvRPbTXn-1" value="Sistema" style="shape=umlFrame;whiteSpace=wrap;html=1;" vertex="1" parent="1">
          <mxGeometry x="520" y="150" width="280" height="270" as="geometry" />
        </mxCell>
        <mxCell id="lqsnWIF8sEhZWvRPbTXn-2" style="rounded=0;orthogonalLoop=1;jettySize=auto;html=1;entryX=-0.007;entryY=0.614;entryDx=0;entryDy=0;entryPerimeter=0;" edge="1" parent="1" source="lqsnWIF8sEhZWvRPbTXn-10" target="lqsnWIF8sEhZWvRPbTXn-12">
          <mxGeometry relative="1" as="geometry" />
        </mxCell>
        <mxCell id="lqsnWIF8sEhZWvRPbTXn-3" style="rounded=0;orthogonalLoop=1;jettySize=auto;html=1;entryX=0;entryY=0.5;entryDx=0;entryDy=0;" edge="1" parent="1" source="lqsnWIF8sEhZWvRPbTXn-10" target="lqsnWIF8sEhZWvRPbTXn-14">
          <mxGeometry relative="1" as="geometry" />
        </mxCell>
        <mxCell id="lqsnWIF8sEhZWvRPbTXn-4" style="rounded=0;orthogonalLoop=1;jettySize=auto;html=1;entryX=0;entryY=0.5;entryDx=0;entryDy=0;" edge="1" parent="1" source="lqsnWIF8sEhZWvRPbTXn-10" target="lqsnWIF8sEhZWvRPbTXn-16">
          <mxGeometry relative="1" as="geometry" />
        </mxCell>
        <mxCell id="lqsnWIF8sEhZWvRPbTXn-5" style="orthogonalLoop=1;jettySize=auto;html=1;strokeColor=none;" edge="1" parent="1" source="lqsnWIF8sEhZWvRPbTXn-10">
          <mxGeometry relative="1" as="geometry">
            <mxPoint x="570" y="450" as="targetPoint" />
          </mxGeometry>
        </mxCell>
        <mxCell id="lqsnWIF8sEhZWvRPbTXn-10" value="Paciente&lt;br&gt;" style="shape=umlActor;verticalLabelPosition=bottom;verticalAlign=top;html=1;fillColor=#e51400;fontColor=#FF0000;strokeColor=#B20000;" vertex="1" parent="1">
          <mxGeometry x="330" y="190" width="90" height="180" as="geometry" />
        </mxCell>
        <mxCell id="lqsnWIF8sEhZWvRPbTXn-11" style="edgeStyle=none;rounded=0;orthogonalLoop=1;jettySize=auto;html=1;entryX=0;entryY=0.5;entryDx=0;entryDy=0;exitX=1;exitY=0.5;exitDx=0;exitDy=0;" edge="1" parent="1" source="lqsnWIF8sEhZWvRPbTXn-12" target="lqsnWIF8sEhZWvRPbTXn-39">
          <mxGeometry relative="1" as="geometry" />
        </mxCell>
        <mxCell id="lqsnWIF8sEhZWvRPbTXn-12" value="Registrar signos vitales" style="ellipse;whiteSpace=wrap;html=1;fillColor=#fff2cc;strokeColor=#d6b656;" vertex="1" parent="1">
          <mxGeometry x="570" y="190" width="200" height="40" as="geometry" />
        </mxCell>
        <mxCell id="lqsnWIF8sEhZWvRPbTXn-13" style="edgeStyle=none;rounded=0;orthogonalLoop=1;jettySize=auto;html=1;" edge="1" parent="1" source="lqsnWIF8sEhZWvRPbTXn-14" target="lqsnWIF8sEhZWvRPbTXn-40">
          <mxGeometry relative="1" as="geometry" />
        </mxCell>
        <mxCell id="lqsnWIF8sEhZWvRPbTXn-14" value="Consulta historia clinica" style="ellipse;whiteSpace=wrap;html=1;fillColor=#dae8fc;strokeColor=#6c8ebf;" vertex="1" parent="1">
          <mxGeometry x="570" y="270" width="200" height="40" as="geometry" />
        </mxCell>
        <mxCell id="lqsnWIF8sEhZWvRPbTXn-15" style="edgeStyle=none;rounded=0;orthogonalLoop=1;jettySize=auto;html=1;entryX=0;entryY=0.5;entryDx=0;entryDy=0;" edge="1" parent="1" source="lqsnWIF8sEhZWvRPbTXn-16" target="lqsnWIF8sEhZWvRPbTXn-41">
          <mxGeometry relative="1" as="geometry" />
        </mxCell>
        <mxCell id="lqsnWIF8sEhZWvRPbTXn-16" value="Actualizar datos personales" style="ellipse;whiteSpace=wrap;html=1;fillColor=#fff2cc;strokeColor=#d6b656;" vertex="1" parent="1">
          <mxGeometry x="570" y="350" width="200" height="40" as="geometry" />
        </mxCell>
        <mxCell id="lqsnWIF8sEhZWvRPbTXn-25" style="edgeStyle=none;rounded=0;orthogonalLoop=1;jettySize=auto;html=1;entryX=0.5;entryY=0;entryDx=0;entryDy=0;" edge="1" parent="1" source="lqsnWIF8sEhZWvRPbTXn-26" target="lqsnWIF8sEhZWvRPbTXn-12">
          <mxGeometry relative="1" as="geometry" />
        </mxCell>
        <mxCell id="lqsnWIF8sEhZWvRPbTXn-26" value="Datos Entrada:&lt;br&gt;- Frecuencia Cardiaca&lt;br&gt;- Frecuencia Respiratoria&lt;br&gt;- Temperatura Corporal&lt;br&gt;- Presion Arterial" style="html=1;fillColor=#d5e8d4;strokeColor=#82b366;" vertex="1" parent="1">
          <mxGeometry x="1000" y="-40" width="160" height="100" as="geometry" />
        </mxCell>
        <mxCell id="lqsnWIF8sEhZWvRPbTXn-27" style="edgeStyle=none;rounded=0;orthogonalLoop=1;jettySize=auto;html=1;entryX=0.5;entryY=0;entryDx=0;entryDy=0;" edge="1" parent="1" source="lqsnWIF8sEhZWvRPbTXn-28" target="lqsnWIF8sEhZWvRPbTXn-14">
          <mxGeometry relative="1" as="geometry" />
        </mxCell>
        <mxCell id="lqsnWIF8sEhZWvRPbTXn-28" value="Datos Entrada:&lt;br&gt;- ID Paciente" style="html=1;fillColor=#d5e8d4;strokeColor=#82b366;" vertex="1" parent="1">
          <mxGeometry x="1000" y="160" width="160" height="70" as="geometry" />
        </mxCell>
        <mxCell id="lqsnWIF8sEhZWvRPbTXn-29" style="edgeStyle=none;rounded=0;orthogonalLoop=1;jettySize=auto;html=1;entryX=0.5;entryY=0;entryDx=0;entryDy=0;" edge="1" parent="1" source="lqsnWIF8sEhZWvRPbTXn-30" target="lqsnWIF8sEhZWvRPbTXn-16">
          <mxGeometry relative="1" as="geometry" />
        </mxCell>
        <mxCell id="lqsnWIF8sEhZWvRPbTXn-30" value="Datos Entrada:&lt;br&gt;- Nombre&lt;br&gt;-Apellido&lt;br&gt;-Direccion&lt;br&gt;-Telefono&lt;br&gt;-Email&lt;br&gt;-ContraseÃ±a" style="html=1;fillColor=#d5e8d4;strokeColor=#82b366;" vertex="1" parent="1">
          <mxGeometry x="1000" y="430" width="160" height="110" as="geometry" />
        </mxCell>
        <mxCell id="lqsnWIF8sEhZWvRPbTXn-39" value="Datos Salida:&lt;br&gt;- Confirmacion Registro" style="html=1;fillColor=#f8cecc;strokeColor=#b85450;" vertex="1" parent="1">
          <mxGeometry x="1000" y="70" width="160" height="50" as="geometry" />
        </mxCell>
        <mxCell id="lqsnWIF8sEhZWvRPbTXn-40" value="Datos Salida:&lt;br&gt;- ???&lt;br&gt;-Medico Asignado&lt;br&gt;-Enfermero Asignado" style="html=1;fillColor=#f8cecc;strokeColor=#b85450;" vertex="1" parent="1">
          <mxGeometry x="1000" y="240" width="160" height="160" as="geometry" />
        </mxCell>
        <mxCell id="lqsnWIF8sEhZWvRPbTXn-41" value="Datos Salida:&lt;br&gt;- Confirmacion Actualizacion" style="html=1;fillColor=#f8cecc;strokeColor=#b85450;" vertex="1" parent="1">
          <mxGeometry x="1000" y="550" width="160" height="50" as="geometry" />
        </mxCell>
      </root>
    </mxGraphModel>
  </diagram>
</mxfile>
